<svg id="Capa_1" data-name="Capa 1" xmlns="http://www.w3.org/2000/svg" viewBox="0 0 386.28 255.65"><defs><style>.cls-1{fill:#fff;stroke:#1d1d1b;stroke-miterlimit:10;stroke-width:6px;}.cls-2{fill:#1d1d1b;}</style></defs><title>Marca personal</title><path class="cls-1" d="M160.71,270c-.84-7.57-.28-17.39-.28-24.68,0-25.81,15.15-44.88,42.92-44.88h7.57c7.3,0,16.55,4.49,16.55,14v11.22h-21c-12.63,0-17.12,12.9-17.12,26.08,0,5.33-.56,14,.29,20.2a120.64,120.64,0,0,1,1.4,18.23c0,21-9,31.14-25,33.94v.56c16,2.53,24.41,12.63,24.41,33.66,0,7.3,0,15.15-.84,21.32s-.29,14.31-.29,19.64c0,12.9,4.77,25.52,18.24,25.52h4.77c10.09,0,14.86,5.89,14.86,14v11.22H203.63c-27.21,0-43.2-18.52-43.2-44.32,0-7.3-.56-16,.28-23.85a216.76,216.76,0,0,0,1.13-23.28c0-8.69-3.37-19.35-15.15-21-9.82-1.41-13.47-5.33-13.47-12.07V314.85l13.47-2.25c10.1-1.68,15.71-10.38,15.71-21.32C162.4,284.27,161.56,277.54,160.71,270Z" transform="translate(-130.22 -197.4)"/><path class="cls-1" d="M486,380.48c.84,7.58.28,17.39.28,24.69,0,25.8-15.15,44.88-42.92,44.88H435.8c-7.57,0-16.55-4.49-16.55-14V424.8h21c12.62,0,17.11-12.9,17.11-26.08,0-5.33.56-14-.28-20.2a120.64,120.64,0,0,1-1.4-18.23c0-21,9-31.14,25-33.94v-.57c-16-2.52-24.4-12.62-24.4-33.66,0-7.29,0-15.14.84-21.31.56-6.17.28-14.31.28-19.64,0-12.9-4.77-25.52-18.23-25.52H434.4c-10.1,0-14.87-5.89-14.87-14V200.4h23.56c27.21,0,43.2,18.51,43.2,44.32,0,7.29.56,16-.28,23.84a219.58,219.58,0,0,0-1.12,23.28c0,8.7,3.37,19.36,15.15,21,9.81,1.4,13.46,5.33,13.46,12.06V335.6L500,337.85c-10.1,1.68-15.71,10.38-15.71,21.32C484.33,366.18,485.17,372.91,486,380.48Z" transform="translate(-130.22 -197.4)"/><polygon class="cls-1" points="111.99 218.14 160.74 218.14 268.91 40.84 220.16 40.84 111.99 218.14"/><path class="cls-2" d="M257,270.1s-10.43-21.43,0-31.86,20.86-12.28,35.41,2.43L393.48,369.86l5.66,40.43s3.55,8.57-4.69,4.52-39.78-19.24-39.78-19.24Z" transform="translate(-130.22 -197.4)"/></svg>